<svg width="140" height="68" viewBox="0 0 140 68" fill="none" xmlns="http://www.w3.org/2000/svg">
<path d="M121.706 27.4998V8.93183H110.046L111.51 6.42383H124.267V24.5318L121.706 27.4998Z" fill="#1C2E5A"/>
<mask id="mask0_1_2043" style="mask-type:luminance" maskUnits="userSpaceOnUse" x="82" y="0" width="36" height="35">
<path d="M91.5745 34.9559C91.2745 34.9559 90.1745 34.2399 88.3135 32.8279C86.4525 31.4159 84.5955 29.8959 82.7905 28.3079C82.3625 28.0079 82.1465 27.7459 82.1465 27.5329L82.5365 26.9519L90.4755 17.3339L90.9905 17.0119C91.2905 17.0119 94.1655 19.0809 99.7695 23.3369L107.128 14.4289L107.647 14.1069C108.03 14.1069 110.984 16.1919 116.426 20.3069L117.006 20.8219L117.265 21.2749L116.875 21.9839L109.066 31.4099C108.766 31.8379 108.53 32.0539 108.357 32.0539C108.057 32.0539 106.893 31.3049 104.805 29.7629C102.752 28.2429 100.993 26.8209 99.5795 25.5359L92.2855 34.3149C91.9845 34.7389 91.7465 34.9559 91.5745 34.9559ZM99.3835 18.0439C99.0835 18.0439 97.9215 17.2839 95.9285 15.7849C93.9355 14.2859 92.2105 12.8719 90.7995 11.5849C90.3695 11.2849 90.1515 11.0239 90.1515 10.8109L98.1515 0.740875L98.6735 0.421875C99.0165 0.421875 101.861 2.44187 107.128 6.42188L107.712 6.93888L107.967 7.38888L107.582 8.10087L100.094 17.4009C99.7945 17.8269 99.5555 18.0439 99.3835 18.0439Z" fill="white"/>
</mask>
<g mask="url(#mask0_1_2043)">
<path d="M117.265 8.81403L97.7178 -4.20497L117.265 -14.293V8.81403Z" fill="#EE4D42"/>
</g>
<mask id="mask1_1_2043" style="mask-type:luminance" maskUnits="userSpaceOnUse" x="82" y="0" width="36" height="35">
<path d="M91.5745 34.9559C91.2745 34.9559 90.1745 34.2399 88.3135 32.8279C86.4525 31.4159 84.5955 29.8959 82.7905 28.3079C82.3625 28.0079 82.1465 27.7459 82.1465 27.5329L82.5365 26.9519L90.4755 17.3339L90.9905 17.0119C91.2905 17.0119 94.1655 19.0809 99.7695 23.3369L107.128 14.4289L107.647 14.1069C108.03 14.1069 110.984 16.1919 116.426 20.3069L117.006 20.8219L117.265 21.2749L116.875 21.9839L109.066 31.4099C108.766 31.8379 108.53 32.0539 108.357 32.0539C108.057 32.0539 106.893 31.3049 104.805 29.7629C102.752 28.2429 100.993 26.8209 99.5795 25.5359L92.2855 34.3149C91.9845 34.7389 91.7465 34.9559 91.5745 34.9559ZM99.3835 18.0439C99.0835 18.0439 97.9215 17.2839 95.9285 15.7849C93.9355 14.2859 92.2105 12.8719 90.7995 11.5849C90.3695 11.2849 90.1515 11.0239 90.1515 10.8109L98.1515 0.740875L98.6735 0.421875C99.0165 0.421875 101.861 2.44187 107.128 6.42188L107.712 6.93888L107.967 7.38888L107.582 8.10087L100.094 17.4009C99.7945 17.8269 99.5555 18.0439 99.3835 18.0439Z" fill="white"/>
</mask>
<g mask="url(#mask1_1_2043)">
<path d="M97.7178 -4.2041L108.752 22.2779L117.264 8.8139L97.7178 -4.2041Z" fill="#1D66A6"/>
</g>
<mask id="mask2_1_2043" style="mask-type:luminance" maskUnits="userSpaceOnUse" x="82" y="0" width="36" height="35">
<path d="M91.5745 34.9559C91.2745 34.9559 90.1745 34.2399 88.3135 32.8279C86.4525 31.4159 84.5955 29.8959 82.7905 28.3079C82.3625 28.0079 82.1465 27.7459 82.1465 27.5329L82.5365 26.9519L90.4755 17.3339L90.9905 17.0119C91.2905 17.0119 94.1655 19.0809 99.7695 23.3369L107.128 14.4289L107.647 14.1069C108.03 14.1069 110.984 16.1919 116.426 20.3069L117.006 20.8219L117.265 21.2749L116.875 21.9839L109.066 31.4099C108.766 31.8379 108.53 32.0539 108.357 32.0539C108.057 32.0539 106.893 31.3049 104.805 29.7629C102.752 28.2429 100.993 26.8209 99.5795 25.5359L92.2855 34.3149C91.9845 34.7389 91.7465 34.9559 91.5745 34.9559ZM99.3835 18.0439C99.0835 18.0439 97.9215 17.2839 95.9285 15.7849C93.9355 14.2859 92.2105 12.8719 90.7995 11.5849C90.3695 11.2849 90.1515 11.0239 90.1515 10.8109L98.1515 0.740875L98.6735 0.421875C99.0165 0.421875 101.861 2.44187 107.128 6.42188L107.712 6.93888L107.967 7.38888L107.582 8.10087L100.094 17.4009C99.7945 17.8269 99.5555 18.0439 99.3835 18.0439Z" fill="white"/>
</mask>
<g mask="url(#mask2_1_2043)">
<path d="M117.264 35.9915L108.752 22.2775L117.264 8.81348V35.9915Z" fill="#1C2E5A"/>
</g>
<mask id="mask3_1_2043" style="mask-type:luminance" maskUnits="userSpaceOnUse" x="82" y="0" width="36" height="35">
<path d="M91.5745 34.9559C91.2745 34.9559 90.1745 34.2399 88.3135 32.8279C86.4525 31.4159 84.5955 29.8959 82.7905 28.3079C82.3625 28.0079 82.1465 27.7459 82.1465 27.5329L82.5365 26.9519L90.4755 17.3339L90.9905 17.0119C91.2905 17.0119 94.1655 19.0809 99.7695 23.3369L107.128 14.4289L107.647 14.1069C108.03 14.1069 110.984 16.1919 116.426 20.3069L117.006 20.8219L117.265 21.2749L116.875 21.9839L109.066 31.4099C108.766 31.8379 108.53 32.0539 108.357 32.0539C108.057 32.0539 106.893 31.3049 104.805 29.7629C102.752 28.2429 100.993 26.8209 99.5795 25.5359L92.2855 34.3149C91.9845 34.7389 91.7465 34.9559 91.5745 34.9559ZM99.3835 18.0439C99.0835 18.0439 97.9215 17.2839 95.9285 15.7849C93.9355 14.2859 92.2105 12.8719 90.7995 11.5849C90.3695 11.2849 90.1515 11.0239 90.1515 10.8109L98.1515 0.740875L98.6735 0.421875C99.0165 0.421875 101.861 2.44187 107.128 6.42188L107.712 6.93888L107.967 7.38888L107.582 8.10087L100.094 17.4009C99.7945 17.8269 99.5555 18.0439 99.3835 18.0439Z" fill="white"/>
</mask>
<g mask="url(#mask3_1_2043)">
<path d="M81.9549 18.026L80.0449 -12.874L97.7189 -4.20502L81.9549 18.026Z" fill="#1D66A6"/>
</g>
<mask id="mask4_1_2043" style="mask-type:luminance" maskUnits="userSpaceOnUse" x="82" y="0" width="36" height="35">
<path d="M91.5745 34.9559C91.2745 34.9559 90.1745 34.2399 88.3135 32.8279C86.4525 31.4159 84.5955 29.8959 82.7905 28.3079C82.3625 28.0079 82.1465 27.7459 82.1465 27.5329L82.5365 26.9519L90.4755 17.3339L90.9905 17.0119C91.2905 17.0119 94.1655 19.0809 99.7695 23.3369L107.128 14.4289L107.647 14.1069C108.03 14.1069 110.984 16.1919 116.426 20.3069L117.006 20.8219L117.265 21.2749L116.875 21.9839L109.066 31.4099C108.766 31.8379 108.53 32.0539 108.357 32.0539C108.057 32.0539 106.893 31.3049 104.805 29.7629C102.752 28.2429 100.993 26.8209 99.5795 25.5359L92.2855 34.3149C91.9845 34.7389 91.7465 34.9559 91.5745 34.9559ZM99.3835 18.0439C99.0835 18.0439 97.9215 17.2839 95.9285 15.7849C93.9355 14.2859 92.2105 12.8719 90.7995 11.5849C90.3695 11.2849 90.1515 11.0239 90.1515 10.8109L98.1515 0.740875L98.6735 0.421875C99.0165 0.421875 101.861 2.44187 107.128 6.42188L107.712 6.93888L107.967 7.38888L107.582 8.10087L100.094 17.4009C99.7945 17.8269 99.5555 18.0439 99.3835 18.0439Z" fill="white"/>
</mask>
<g mask="url(#mask4_1_2043)">
<path d="M108.754 22.2779L81.9541 18.0219L97.7171 -4.2041L108.754 22.2779Z" fill="#26B195"/>
</g>
<mask id="mask5_1_2043" style="mask-type:luminance" maskUnits="userSpaceOnUse" x="82" y="0" width="36" height="35">
<path d="M91.5745 34.9559C91.2745 34.9559 90.1745 34.2399 88.3135 32.8279C86.4525 31.4159 84.5955 29.8959 82.7905 28.3079C82.3625 28.0079 82.1465 27.7459 82.1465 27.5329L82.5365 26.9519L90.4755 17.3339L90.9905 17.0119C91.2905 17.0119 94.1655 19.0809 99.7695 23.3369L107.128 14.4289L107.647 14.1069C108.03 14.1069 110.984 16.1919 116.426 20.3069L117.006 20.8219L117.265 21.2749L116.875 21.9839L109.066 31.4099C108.766 31.8379 108.53 32.0539 108.357 32.0539C108.057 32.0539 106.893 31.3049 104.805 29.7629C102.752 28.2429 100.993 26.8209 99.5795 25.5359L92.2855 34.3149C91.9845 34.7389 91.7465 34.9559 91.5745 34.9559ZM99.3835 18.0439C99.0835 18.0439 97.9215 17.2839 95.9285 15.7849C93.9355 14.2859 92.2105 12.8719 90.7995 11.5849C90.3695 11.2849 90.1515 11.0239 90.1515 10.8109L98.1515 0.740875L98.6735 0.421875C99.0165 0.421875 101.861 2.44187 107.128 6.42188L107.712 6.93888L107.967 7.38888L107.582 8.10087L100.094 17.4009C99.7945 17.8269 99.5555 18.0439 99.3835 18.0439Z" fill="white"/>
</mask>
<g mask="url(#mask5_1_2043)">
<path d="M103.313 49.9423L108.751 22.2783L117.263 35.9923L103.313 49.9423Z" fill="#26B195"/>
</g>
<mask id="mask6_1_2043" style="mask-type:luminance" maskUnits="userSpaceOnUse" x="82" y="0" width="36" height="35">
<path d="M91.5745 34.9559C91.2745 34.9559 90.1745 34.2399 88.3135 32.8279C86.4525 31.4159 84.5955 29.8959 82.7905 28.3079C82.3625 28.0079 82.1465 27.7459 82.1465 27.5329L82.5365 26.9519L90.4755 17.3339L90.9905 17.0119C91.2905 17.0119 94.1655 19.0809 99.7695 23.3369L107.128 14.4289L107.647 14.1069C108.03 14.1069 110.984 16.1919 116.426 20.3069L117.006 20.8219L117.265 21.2749L116.875 21.9839L109.066 31.4099C108.766 31.8379 108.53 32.0539 108.357 32.0539C108.057 32.0539 106.893 31.3049 104.805 29.7629C102.752 28.2429 100.993 26.8209 99.5795 25.5359L92.2855 34.3149C91.9845 34.7389 91.7465 34.9559 91.5745 34.9559ZM99.3835 18.0439C99.0835 18.0439 97.9215 17.2839 95.9285 15.7849C93.9355 14.2859 92.2105 12.8719 90.7995 11.5849C90.3695 11.2849 90.1515 11.0239 90.1515 10.8109L98.1515 0.740875L98.6735 0.421875C99.0165 0.421875 101.861 2.44187 107.128 6.42188L107.712 6.93888L107.967 7.38888L107.582 8.10087L100.094 17.4009C99.7945 17.8269 99.5555 18.0439 99.3835 18.0439Z" fill="white"/>
</mask>
<g mask="url(#mask6_1_2043)">
<path d="M81.9541 18.0215L92.1211 38.8285L108.754 22.2775L81.9541 18.0215Z" fill="#72CACD"/>
</g>
<mask id="mask7_1_2043" style="mask-type:luminance" maskUnits="userSpaceOnUse" x="82" y="0" width="36" height="35">
<path d="M91.5745 34.9559C91.2745 34.9559 90.1745 34.2399 88.3135 32.8279C86.4525 31.4159 84.5955 29.8959 82.7905 28.3079C82.3625 28.0079 82.1465 27.7459 82.1465 27.5329L82.5365 26.9519L90.4755 17.3339L90.9905 17.0119C91.2905 17.0119 94.1655 19.0809 99.7695 23.3369L107.128 14.4289L107.647 14.1069C108.03 14.1069 110.984 16.1919 116.426 20.3069L117.006 20.8219L117.265 21.2749L116.875 21.9839L109.066 31.4099C108.766 31.8379 108.53 32.0539 108.357 32.0539C108.057 32.0539 106.893 31.3049 104.805 29.7629C102.752 28.2429 100.993 26.8209 99.5795 25.5359L92.2855 34.3149C91.9845 34.7389 91.7465 34.9559 91.5745 34.9559ZM99.3835 18.0439C99.0835 18.0439 97.9215 17.2839 95.9285 15.7849C93.9355 14.2859 92.2105 12.8719 90.7995 11.5849C90.3695 11.2849 90.1515 11.0239 90.1515 10.8109L98.1515 0.740875L98.6735 0.421875C99.0165 0.421875 101.861 2.44187 107.128 6.42188L107.712 6.93888L107.967 7.38888L107.582 8.10087L100.094 17.4009C99.7945 17.8269 99.5555 18.0439 99.3835 18.0439Z" fill="white"/>
</mask>
<g mask="url(#mask7_1_2043)">
<path d="M103.314 49.9423L92.1221 38.8293L108.752 22.2783L103.314 49.9423Z" fill="#26B195"/>
</g>
<mask id="mask8_1_2043" style="mask-type:luminance" maskUnits="userSpaceOnUse" x="82" y="0" width="36" height="35">
<path d="M91.5745 34.9559C91.2745 34.9559 90.1745 34.2399 88.3135 32.8279C86.4525 31.4159 84.5955 29.8959 82.7905 28.3079C82.3625 28.0079 82.1465 27.7459 82.1465 27.5329L82.5365 26.9519L90.4755 17.3339L90.9905 17.0119C91.2905 17.0119 94.1655 19.0809 99.7695 23.3369L107.128 14.4289L107.647 14.1069C108.03 14.1069 110.984 16.1919 116.426 20.3069L117.006 20.8219L117.265 21.2749L116.875 21.9839L109.066 31.4099C108.766 31.8379 108.53 32.0539 108.357 32.0539C108.057 32.0539 106.893 31.3049 104.805 29.7629C102.752 28.2429 100.993 26.8209 99.5795 25.5359L92.2855 34.3149C91.9845 34.7389 91.7465 34.9559 91.5745 34.9559ZM99.3835 18.0439C99.0835 18.0439 97.9215 17.2839 95.9285 15.7849C93.9355 14.2859 92.2105 12.8719 90.7995 11.5849C90.3695 11.2849 90.1515 11.0239 90.1515 10.8109L98.1515 0.740875L98.6735 0.421875C99.0165 0.421875 101.861 2.44187 107.128 6.42188L107.712 6.93888L107.967 7.38888L107.582 8.10087L100.094 17.4009C99.7945 17.8269 99.5555 18.0439 99.3835 18.0439Z" fill="white"/>
</mask>
<g mask="url(#mask8_1_2043)">
<path d="M68.9258 34.2575L81.9548 18.0215L92.1258 38.8285L68.9258 34.2575Z" fill="#1C2E5A"/>
</g>
<mask id="mask9_1_2043" style="mask-type:luminance" maskUnits="userSpaceOnUse" x="82" y="0" width="36" height="35">
<path d="M91.5745 34.9559C91.2745 34.9559 90.1745 34.2399 88.3135 32.8279C86.4525 31.4159 84.5955 29.8959 82.7905 28.3079C82.3625 28.0079 82.1465 27.7459 82.1465 27.5329L82.5365 26.9519L90.4755 17.3339L90.9905 17.0119C91.2905 17.0119 94.1655 19.0809 99.7695 23.3369L107.128 14.4289L107.647 14.1069C108.03 14.1069 110.984 16.1919 116.426 20.3069L117.006 20.8219L117.265 21.2749L116.875 21.9839L109.066 31.4099C108.766 31.8379 108.53 32.0539 108.357 32.0539C108.057 32.0539 106.893 31.3049 104.805 29.7629C102.752 28.2429 100.993 26.8209 99.5795 25.5359L92.2855 34.3149C91.9845 34.7389 91.7465 34.9559 91.5745 34.9559ZM99.3835 18.0439C99.0835 18.0439 97.9215 17.2839 95.9285 15.7849C93.9355 14.2859 92.2105 12.8719 90.7995 11.5849C90.3695 11.2849 90.1515 11.0239 90.1515 10.8109L98.1515 0.740875L98.6735 0.421875C99.0165 0.421875 101.861 2.44187 107.128 6.42188L107.712 6.93888L107.967 7.38888L107.582 8.10087L100.094 17.4009C99.7945 17.8269 99.5555 18.0439 99.3835 18.0439Z" fill="white"/>
</mask>
<g mask="url(#mask9_1_2043)">
<path d="M77.1118 63.1828L68.9258 34.2568L92.1258 38.8288L77.1118 63.1828Z" fill="#FFD300"/>
</g>
<mask id="mask10_1_2043" style="mask-type:luminance" maskUnits="userSpaceOnUse" x="77" y="8" width="63" height="57">
<path d="M77.7031 8.93066V64.9447L139.869 64.1047V8.93066" fill="white"/>
</mask>
<g mask="url(#mask10_1_2043)">
<path d="M133.409 24.151C132.769 22.349 131.887 21.668 130.902 21.668C128.434 21.668 125.322 25.954 123.76 27.589C120.276 31.2284 116.364 34.433 112.11 37.133C105.578 41.285 96.1988 46.04 87.8178 46.04C86.5564 46.0453 85.2974 45.9274 84.0588 45.688C75.0478 43.906 71.3778 34.601 68.9738 26.789C70.2388 30.903 67.6908 36.227 68.9738 40.398C70.7858 46.29 73.0738 52.869 78.2198 56.698C80.8417 58.6008 84.0184 59.5851 87.2568 59.498C91.1084 59.3444 94.9112 58.5813 98.5238 57.237C105.356 54.9402 111.738 51.4759 117.386 46.998C120.451 44.5018 123.307 41.7594 125.926 38.798C127.36 37.222 129.526 35.384 131.175 35.384C131.472 35.3833 131.764 35.4547 132.028 35.5919C132.291 35.7292 132.517 35.9282 132.687 36.172C133.024 36.6916 133.195 37.3017 133.177 37.921C133.202 38.638 133.225 39.355 133.261 40.071C133.31 41.036 133.345 42.009 133.438 42.971C133.477 40.5459 133.644 38.1245 133.938 35.717C134.208 33.3167 134.292 30.8992 134.19 28.486C134.134 27.0119 133.872 25.5529 133.41 24.152" fill="#1C2E5A"/>
</g>
<path d="M75.0371 6.42383V67.4528H124.266V42.8528L121.706 45.2338V64.9458H77.7061V8.93183H88.5061L90.4921 6.42383H75.0371Z" fill="#26B195"/>
<path d="M6.8373 38.7481C6.90267 39.471 6.74604 40.1966 6.3883 40.8281C6.15408 41.083 5.86236 41.2782 5.53744 41.3975C5.21252 41.5168 4.86379 41.5568 4.5203 41.5141L0.0292969 41.5371V46.8791H7.2863C7.9209 46.9031 8.5537 46.7971 9.14581 46.5675C9.73791 46.3379 10.2768 45.9897 10.7293 45.5441C11.1927 45.0415 11.5496 44.4504 11.7785 43.8063C12.0074 43.1622 12.1036 42.4784 12.0613 41.7961V20.9961H6.8373V38.7481Z" fill="#1C2E5A"/>
<path d="M24.583 46.9258V48.5368H21.941V55.6258H20.046V48.5368H17.416V46.9258H24.583Z" fill="#26B195"/>
<path d="M32.9838 46.9258V55.6258H31.0838V51.8398H27.5318V55.6258H25.6318V46.9258H27.5318V50.2258H31.0888V46.9258H32.9838Z" fill="#26B195"/>
<path d="M41.1939 46.9258V48.5368H36.5689V50.3888H40.8109V51.8828H36.5689V54.0128H41.2809V55.6258H34.6689V46.9258H41.1939Z" fill="#26B195"/>
<path d="M52.0328 46.9258V55.6258H50.2328V53.0188C50.2328 51.6188 50.2718 50.1494 50.3498 48.6108C50.0651 49.7341 49.7665 50.7484 49.4538 51.6538L48.0958 55.6258H46.6018L45.2068 51.7348C44.8532 50.724 44.5583 49.6936 44.3238 48.6488C44.3965 50.3521 44.4328 51.7408 44.4328 52.8148V55.6258H42.6328V46.9258H45.3328L46.6328 50.7038C46.9332 51.6047 47.1744 52.5244 47.3548 53.4568C47.5473 52.5185 47.7967 51.5927 48.1018 50.6848L49.3488 46.9258H52.0328Z" fill="#26B195"/>
<path d="M54.8359 55.6252H52.8799L56.1949 46.9082H58.1589L61.4589 55.6232H59.4659L58.7799 53.6742H55.5399L54.8399 55.6242L54.8359 55.6252ZM57.1699 48.8282C57.0279 49.3352 56.8279 49.9532 56.5589 50.7182L55.9979 52.2852H58.3119L57.7509 50.7182C57.5238 50.099 57.3298 49.4681 57.1699 48.8282Z" fill="#26B195"/>
<path d="M64.1881 55.6254H62.2881V46.9254H66.4981C67.16 46.8898 67.8198 47.0277 68.4121 47.3254C68.774 47.5299 69.0719 47.831 69.2724 48.1952C69.4729 48.5594 69.568 48.9722 69.5471 49.3874C69.5696 49.9871 69.3539 50.5713 68.9471 51.0124C68.731 51.2397 68.4645 51.4131 68.1691 51.5184C68.5413 51.607 68.8642 51.8373 69.0691 52.1604C69.2542 52.4717 69.3698 52.8193 69.4081 53.1794C69.4281 53.3014 69.4701 53.7104 69.5321 54.3954C69.5284 54.7869 69.6161 55.1738 69.7881 55.5254L69.8671 55.6254H67.8881C67.8285 55.5017 67.7849 55.371 67.7581 55.2364C67.7291 55.1054 67.6861 54.6364 67.6281 53.8364C67.6409 53.5702 67.5925 53.3045 67.4866 53.0599C67.3807 52.8153 67.22 52.5982 67.0171 52.4254C66.6691 52.2531 66.2815 52.1764 65.8941 52.2034H64.1881V55.6254ZM64.1881 48.4254V50.8144H65.9881C66.4148 50.8494 66.8427 50.7638 67.2231 50.5674C67.3732 50.4592 67.4933 50.3146 67.5722 50.1472C67.6511 49.9798 67.6862 49.7951 67.6741 49.6104C67.6931 49.3945 67.6445 49.1781 67.535 48.991C67.4255 48.804 67.2606 48.6556 67.0631 48.5664C66.7467 48.4525 66.411 48.4022 66.0751 48.4184L64.1881 48.4254Z" fill="#26B195"/>
<path d="M59.9065 25.5699C59.4327 25.3537 58.9944 25.0672 58.6065 24.7199C57.8585 24.1519 57.1175 23.5459 56.4065 22.9199C56.2345 22.7969 56.1475 22.6969 56.1475 22.6099L56.3025 22.3779L59.4695 18.5419L59.6745 18.4129C60.8928 19.1797 62.0618 20.0224 63.1745 20.9359L66.1105 17.3829L66.3175 17.2539C67.5469 17.9848 68.7172 18.811 69.8175 19.7249L70.0485 19.9299L70.1485 20.1109L69.9975 20.3969L66.8835 24.1549C66.7665 24.3229 66.6685 24.4119 66.6005 24.4119C66.0877 24.1745 65.6107 23.8666 65.1835 23.4969C64.3725 22.8969 63.6715 22.3309 63.0995 21.8109L60.1905 25.3109C60.0705 25.4829 59.9755 25.5699 59.9065 25.5699ZM63.0215 18.8239C62.5214 18.5914 62.0573 18.2883 61.6435 17.9239C60.8495 17.3239 60.1615 16.7639 59.5975 16.2509C59.4265 16.1309 59.3395 16.0269 59.3395 15.9419L62.5325 11.9259L62.7385 11.7969C63.9189 12.5122 65.0459 13.3123 66.1105 14.1909L66.3475 14.3969L66.4475 14.5769L66.2945 14.8609L63.3045 18.5679C63.1855 18.7379 63.0905 18.8239 63.0215 18.8239Z" fill="#1C2E5A"/>
<path d="M60.6365 42.2422H47.7535V42.2192H21.4685C20.0484 42.3257 18.6428 41.874 17.5505 40.9602C17.0869 40.4531 16.7318 39.8566 16.5072 39.2072C16.2826 38.5578 16.1932 37.8694 16.2445 37.1842V15.3662H21.4445V34.8442C21.4042 35.1931 21.4475 35.5465 21.5708 35.8753C21.694 36.2041 21.8938 36.4989 22.1535 36.7352C22.7394 37.0509 23.4043 37.1898 24.0675 37.1352H29.8275V26.9422H46.1645V37.1142L49.1485 37.1362H58.9815V37.1122L61.6295 37.1362H61.9925C62.6499 37.1794 63.3099 37.1148 63.9465 36.9452C64.5735 36.6632 64.8915 35.9452 64.8915 34.8172V27.0432H70.0685V37.0892C70.12 37.7867 70.0292 38.4874 69.8016 39.1487C69.574 39.81 69.2144 40.4181 68.7445 40.9362C67.6457 41.8656 66.2257 42.3261 64.7905 42.2182H60.6305V42.2402L60.6365 42.2422ZM35.1235 32.1002V37.0912H35.4375V37.1122H39.3615C39.4705 37.1124 39.5794 37.1053 39.6875 37.0912H41.0235V32.1002H39.6895C39.5809 32.0852 39.4713 32.0779 39.3615 32.0782H35.4375V32.1002H35.1235Z" fill="#1C2E5A"/>
</svg>
