<svg width="24" height="24" viewBox="0 0 24 24" fill="none" xmlns="http://www.w3.org/2000/svg">
<path d="M17.755 14C18.535 14 19.221 14.397 19.625 15H13.5C12.937 15 12.418 15.186 12 15.5H6.25303C6.1545 15.4999 6.05691 15.5192 5.96586 15.5568C5.87481 15.5945 5.79207 15.6497 5.7224 15.7194C5.65273 15.7891 5.59749 15.8718 5.55985 15.9628C5.52221 16.0539 5.5029 16.1515 5.50303 16.25V16.827C5.50303 17.362 5.69503 17.88 6.04303 18.287C7.13803 19.57 8.77703 20.303 11 20.467V21.5C11 21.661 11.015 21.82 11.045 21.972C8.36803 21.803 6.30503 20.906 4.90203 19.262C4.32241 18.5831 4.004 17.7197 4.00403 16.827V16.249C4.00403 15.6525 4.24098 15.0805 4.66274 14.6587C5.08451 14.237 5.65656 14 6.25303 14H17.755ZM12 2.005C12.6566 2.005 13.3068 2.13433 13.9134 2.38561C14.5201 2.63688 15.0713 3.00518 15.5356 3.46947C15.9999 3.93376 16.3682 4.48496 16.6194 5.09159C16.8707 5.69822 17 6.3484 17 7.005C17 7.66161 16.8707 8.31179 16.6194 8.91842C16.3682 9.52505 15.9999 10.0762 15.5356 10.5405C15.0713 11.0048 14.5201 11.3731 13.9134 11.6244C13.3068 11.8757 12.6566 12.005 12 12.005C10.6739 12.005 9.40218 11.4782 8.46449 10.5405C7.52681 9.60286 7.00003 8.33109 7.00003 7.005C7.00003 5.67892 7.52681 4.40715 8.46449 3.46947C9.40218 2.53179 10.6739 2.005 12 2.005ZM12 3.505C11.5404 3.505 11.0853 3.59554 10.6606 3.77143C10.236 3.94732 9.85016 4.20513 9.52515 4.53013C9.20015 4.85514 8.94234 5.24097 8.76645 5.66561C8.59056 6.09025 8.50003 6.54538 8.50003 7.005C8.50003 7.46463 8.59056 7.91976 8.76645 8.3444C8.94234 8.76904 9.20015 9.15487 9.52515 9.47988C9.85016 9.80488 10.236 10.0627 10.6606 10.2386C11.0853 10.4145 11.5404 10.505 12 10.505C12.9283 10.505 13.8185 10.1363 14.4749 9.47988C15.1313 8.8235 15.5 7.93326 15.5 7.005C15.5 6.07675 15.1313 5.18651 14.4749 4.53013C13.8185 3.87375 12.9283 3.505 12 3.505ZM12 17.5C12 17.1022 12.1581 16.7206 12.4394 16.4393C12.7207 16.158 13.1022 16 13.5 16H21.5C21.8979 16 22.2794 16.158 22.5607 16.4393C22.842 16.7206 23 17.1022 23 17.5V21.5C23 21.8978 22.842 22.2794 22.5607 22.5607C22.2794 22.842 21.8979 23 21.5 23H13.5C13.1022 23 12.7207 22.842 12.4394 22.5607C12.1581 22.2794 12 21.8978 12 21.5V17.5ZM22 18C21.7348 18 21.4805 17.8946 21.2929 17.7071C21.1054 17.5196 21 17.2652 21 17H20C20 17.5304 20.2107 18.0391 20.5858 18.4142C20.9609 18.7893 21.4696 19 22 19V18ZM22 20C21.4696 20 20.9609 20.2107 20.5858 20.5858C20.2107 20.9609 20 21.4696 20 22H21C21 21.7348 21.1054 21.4804 21.2929 21.2929C21.4805 21.1054 21.7348 21 22 21V20ZM14 17C14 17.2652 13.8947 17.5196 13.7071 17.7071C13.5196 17.8946 13.2652 18 13 18V19C13.5305 19 14.0392 18.7893 14.4142 18.4142C14.7893 18.0391 15 17.5304 15 17H14ZM15 22C15 21.4696 14.7893 20.9609 14.4142 20.5858C14.0392 20.2107 13.5305 20 13 20V21C13.2652 21 13.5196 21.1054 13.7071 21.2929C13.8947 21.4804 14 21.7348 14 22H15ZM19.25 19.5C19.25 19.0359 19.0657 18.5908 18.7375 18.2626C18.4093 17.9344 17.9642 17.75 17.5 17.75C17.0359 17.75 16.5908 17.9344 16.2626 18.2626C15.9344 18.5908 15.75 19.0359 15.75 19.5C15.75 19.9641 15.9344 20.4093 16.2626 20.7374C16.5908 21.0656 17.0359 21.25 17.5 21.25C17.9642 21.25 18.4093 21.0656 18.7375 20.7374C19.0657 20.4093 19.25 19.9641 19.25 19.5Z" fill="#7E7E7E"/>
</svg>
