<svg width="22" height="22" viewBox="0 0 22 22" fill="none" xmlns="http://www.w3.org/2000/svg">
<path d="M7 11H7.009M10.991 11H11M14.991 11H15" stroke="#7E7E7E" stroke-width="2" stroke-linecap="round" stroke-linejoin="round"/>
<path d="M11 21C16.523 21 21 16.523 21 11C21 5.477 16.523 1 11 1C5.477 1 1 5.477 1 11C1 12.6 1.376 14.112 2.043 15.453C2.221 15.809 2.28 16.216 2.177 16.601L1.582 18.827C1.52329 19.0472 1.52351 19.279 1.58264 19.4991C1.64177 19.7192 1.75773 19.9199 1.91889 20.0811C2.08005 20.2423 2.28075 20.3582 2.50087 20.4174C2.72098 20.4765 2.95277 20.4767 3.173 20.418L5.399 19.823C5.78541 19.7258 6.19403 19.7731 6.548 19.956C7.93092 20.6446 9.45511 21.0021 11 21Z" stroke="#7E7E7E" stroke-width="1.5"/>
</svg>
