<svg width="44" height="44" viewBox="0 0 44 44" fill="none" xmlns="http://www.w3.org/2000/svg">
<path d="M31.6488 29.875C30.2209 27.4065 28.0206 25.6365 25.4528 24.7975C26.723 24.0414 27.7098 22.8892 28.2618 21.5179C28.8137 20.1467 28.9003 18.6321 28.5082 17.2069C28.1161 15.7817 27.267 14.5245 26.0912 13.6286C24.9155 12.7327 23.4782 12.2474 22 12.2474C20.5218 12.2474 19.0845 12.7327 17.9088 13.6286C16.7331 14.5245 15.8839 15.7817 15.4918 17.2069C15.0997 18.6321 15.1863 20.1467 15.7382 21.5179C16.2902 22.8892 17.277 24.0414 18.5472 24.7975C15.9794 25.6356 13.7791 27.4056 12.3513 29.875C12.2989 29.9604 12.2642 30.0554 12.2491 30.1544C12.2341 30.2534 12.239 30.3544 12.2636 30.4515C12.2883 30.5486 12.3321 30.6397 12.3925 30.7196C12.4529 30.7995 12.5287 30.8664 12.6155 30.9165C12.7022 30.9666 12.7981 30.9988 12.8975 31.0113C12.9968 31.0237 13.0977 31.0161 13.1941 30.989C13.2905 30.9618 13.3805 30.9156 13.4587 30.8531C13.537 30.7906 13.6019 30.713 13.6497 30.625C15.4159 27.5725 18.5378 25.75 22 25.75C25.4622 25.75 28.5841 27.5725 30.3503 30.625C30.3981 30.713 30.4631 30.7906 30.5413 30.8531C30.6196 30.9156 30.7095 30.9618 30.8059 30.989C30.9023 31.0161 31.0032 31.0237 31.1026 31.0113C31.2019 30.9988 31.2978 30.9666 31.3845 30.9165C31.4713 30.8664 31.5471 30.7995 31.6075 30.7196C31.6679 30.6397 31.7118 30.5486 31.7364 30.4515C31.761 30.3544 31.766 30.2534 31.7509 30.1544C31.7359 30.0554 31.7011 29.9604 31.6488 29.875ZM16.75 19C16.75 17.9616 17.0579 16.9466 17.6348 16.0832C18.2117 15.2199 19.0316 14.547 19.9909 14.1496C20.9502 13.7523 22.0058 13.6483 23.0242 13.8509C24.0426 14.0534 24.9781 14.5535 25.7123 15.2877C26.4465 16.0219 26.9466 16.9574 27.1491 17.9758C27.3517 18.9942 27.2477 20.0498 26.8504 21.0091C26.453 21.9684 25.7801 22.7883 24.9168 23.3652C24.0534 23.9421 23.0384 24.25 22 24.25C20.6081 24.2485 19.2736 23.6949 18.2893 22.7107C17.3051 21.7264 16.7515 20.3919 16.75 19Z" fill="#26B195"/>
<path d="M31.6488 29.875C30.2209 27.4065 28.0206 25.6365 25.4528 24.7975C26.723 24.0414 27.7098 22.8892 28.2618 21.5179C28.8137 20.1467 28.9003 18.6321 28.5082 17.2069C28.1161 15.7817 27.267 14.5245 26.0912 13.6286C24.9155 12.7327 23.4782 12.2474 22 12.2474C20.5218 12.2474 19.0845 12.7327 17.9088 13.6286C16.7331 14.5245 15.8839 15.7817 15.4918 17.2069C15.0997 18.6321 15.1863 20.1467 15.7382 21.5179C16.2902 22.8892 17.277 24.0414 18.5472 24.7975C15.9794 25.6356 13.7791 27.4056 12.3513 29.875C12.2989 29.9604 12.2642 30.0554 12.2491 30.1544C12.2341 30.2534 12.239 30.3544 12.2636 30.4515C12.2883 30.5486 12.3321 30.6397 12.3925 30.7196C12.4529 30.7995 12.5287 30.8664 12.6155 30.9165C12.7022 30.9666 12.7981 30.9988 12.8975 31.0113C12.9968 31.0237 13.0977 31.0161 13.1941 30.989C13.2905 30.9618 13.3805 30.9156 13.4587 30.8531C13.537 30.7906 13.6019 30.713 13.6497 30.625C15.4159 27.5725 18.5378 25.75 22 25.75C25.4622 25.75 28.5841 27.5725 30.3503 30.625C30.3981 30.713 30.4631 30.7906 30.5413 30.8531C30.6196 30.9156 30.7095 30.9618 30.8059 30.989C30.9023 31.0161 31.0032 31.0237 31.1026 31.0113C31.2019 30.9988 31.2978 30.9666 31.3845 30.9165C31.4713 30.8664 31.5471 30.7995 31.6075 30.7196C31.6679 30.6397 31.7118 30.5486 31.7364 30.4515C31.761 30.3544 31.766 30.2534 31.7509 30.1544C31.7359 30.0554 31.7011 29.9604 31.6488 29.875ZM16.75 19C16.75 17.9616 17.0579 16.9466 17.6348 16.0832C18.2117 15.2199 19.0316 14.547 19.9909 14.1496C20.9502 13.7523 22.0058 13.6483 23.0242 13.8509C24.0426 14.0534 24.9781 14.5535 25.7123 15.2877C26.4465 16.0219 26.9466 16.9574 27.1491 17.9758C27.3517 18.9942 27.2477 20.0498 26.8504 21.0091C26.453 21.9684 25.7801 22.7883 24.9168 23.3652C24.0534 23.9421 23.0384 24.25 22 24.25C20.6081 24.2485 19.2736 23.6949 18.2893 22.7107C17.3051 21.7264 16.7515 20.3919 16.75 19Z" fill="#26B195"/>
<circle cx="22" cy="22" r="21.5" fill="#F6FCFB" stroke="#26B195"/>
<path d="M31.6488 29.875C30.2209 27.4065 28.0206 25.6365 25.4528 24.7975C26.723 24.0414 27.7098 22.8892 28.2618 21.5179C28.8137 20.1467 28.9003 18.6321 28.5082 17.2069C28.1161 15.7817 27.267 14.5245 26.0912 13.6286C24.9155 12.7327 23.4782 12.2474 22 12.2474C20.5218 12.2474 19.0845 12.7327 17.9088 13.6286C16.7331 14.5245 15.8839 15.7817 15.4918 17.2069C15.0997 18.6321 15.1863 20.1467 15.7382 21.5179C16.2902 22.8892 17.277 24.0414 18.5472 24.7975C15.9794 25.6356 13.7791 27.4056 12.3513 29.875C12.2989 29.9604 12.2642 30.0554 12.2491 30.1544C12.2341 30.2534 12.239 30.3544 12.2636 30.4515C12.2883 30.5486 12.3321 30.6397 12.3925 30.7196C12.4529 30.7995 12.5287 30.8664 12.6155 30.9165C12.7022 30.9666 12.7981 30.9988 12.8975 31.0113C12.9968 31.0237 13.0977 31.0161 13.1941 30.989C13.2905 30.9618 13.3805 30.9156 13.4587 30.8531C13.537 30.7906 13.6019 30.713 13.6497 30.625C15.4159 27.5725 18.5378 25.75 22 25.75C25.4622 25.75 28.5841 27.5725 30.3503 30.625C30.3981 30.713 30.4631 30.7906 30.5413 30.8531C30.6196 30.9156 30.7095 30.9618 30.8059 30.989C30.9023 31.0161 31.0032 31.0237 31.1026 31.0113C31.2019 30.9988 31.2978 30.9666 31.3845 30.9165C31.4713 30.8664 31.5471 30.7995 31.6075 30.7196C31.6679 30.6397 31.7118 30.5486 31.7364 30.4515C31.761 30.3544 31.766 30.2534 31.7509 30.1544C31.7359 30.0554 31.7011 29.9604 31.6488 29.875ZM16.75 19C16.75 17.9616 17.0579 16.9466 17.6348 16.0832C18.2117 15.2199 19.0316 14.547 19.9909 14.1496C20.9502 13.7523 22.0058 13.6483 23.0242 13.8509C24.0426 14.0534 24.9781 14.5535 25.7123 15.2877C26.4465 16.0219 26.9466 16.9574 27.1491 17.9758C27.3517 18.9942 27.2477 20.0498 26.8504 21.0091C26.453 21.9684 25.7801 22.7883 24.9168 23.3652C24.0534 23.9421 23.0384 24.25 22 24.25C20.6081 24.2485 19.2736 23.6949 18.2893 22.7107C17.3051 21.7264 16.7515 20.3919 16.75 19Z" fill="#26B195"/>
</svg>
